# Blender v3.6.11 OBJ File: 'Land.blend'
# www.blender.org
mtllib Land.mtl
o Cube
v -5.000000 -0.500000 10.000000
v -5.000000 0.500000 10.000000
v -5.000000 -0.500000 -10.000000
v -5.000000 0.500000 -10.000000
v 5.000000 -0.500000 10.000000
v 5.000000 0.500000 10.000000
v 5.000000 -0.500000 -10.000000
v 5.000000 0.500000 -10.000000
v -6.000000 -0.500000 -10.000000
v -6.000000 -0.500000 10.000000
v -6.000000 0.500000 10.000000
v -6.000000 0.500000 -10.000000
v 6.000000 0.500000 -10.000000
v 6.000000 -0.500000 -10.000000
v 6.000000 -0.500000 10.000000
v 6.000000 0.500000 10.000000
v -5.000000 1.500000 10.000000
v -5.000000 1.500000 -10.000000
v -6.000000 1.500000 10.000000
v -6.000000 1.500000 -10.000000
v 5.000000 1.500000 -10.000000
v 5.000000 1.500000 10.000000
v 6.000000 1.500000 -10.000000
v 6.000000 1.500000 10.000000
vt 0.875000 0.750000
vt 0.875000 0.500000
vt 0.875000 0.500000
vt 0.875000 0.750000
vt 0.625000 0.750000
vt 0.375000 0.750000
vt 0.375000 0.750000
vt 0.625000 0.750000
vt 0.625000 1.000000
vt 0.375000 1.000000
vt 0.125000 0.500000
vt 0.375000 0.500000
vt 0.125000 0.750000
vt 0.625000 0.500000
vt 0.375000 0.000000
vt 0.625000 0.000000
vt 0.625000 0.250000
vt 0.375000 0.250000
vt 0.125000 0.750000
vt 0.125000 0.500000
vt 0.625000 0.250000
vt 0.375000 0.250000
vt 0.625000 1.000000
vt 0.375000 1.000000
vt 0.375000 0.500000
vt 0.625000 0.500000
vt 0.625000 0.500000
vt 0.625000 0.750000
vt 0.875000 0.500000
vt 0.875000 0.750000
vt 0.625000 0.250000
vt 0.625000 0.250000
vt 0.625000 0.000000
vt 0.625000 1.000000
vt 0.625000 1.000000
vt 0.625000 0.500000
vt 0.625000 0.750000
vn 1.0000 0.0000 0.0000
vn 0.0000 0.0000 1.0000
vn 0.0000 -1.0000 0.0000
vn 0.0000 1.0000 0.0000
vn -1.0000 0.0000 0.0000
vn 0.0000 0.0000 -1.0000
usemtl None
s off
f 2/1/1 4/2/1 18/3/1 17/4/1
f 6/5/2 5/6/2 15/7/2 16/8/2
f 5/6/2 6/5/2 2/9/2 1/10/2
f 3/11/3 7/12/3 5/6/3 1/13/3
f 8/14/4 4/2/4 2/1/4 6/5/4
f 10/15/5 11/16/5 12/17/5 9/18/5
f 3/11/3 1/13/3 10/19/3 9/20/3
f 4/21/6 3/22/6 9/18/6 12/17/6
f 1/10/2 2/9/2 11/23/2 10/24/2
f 14/25/1 13/26/1 16/8/1 15/7/1
f 5/6/3 7/12/3 14/25/3 15/7/3
f 16/8/1 13/26/1 23/27/1 24/28/1
f 7/12/6 8/14/6 13/26/6 14/25/6
f 17/4/4 18/3/4 20/29/4 19/30/4
f 4/21/6 12/17/6 20/31/6 18/32/6
f 12/17/5 11/16/5 19/33/5 20/31/5
f 11/23/2 2/9/2 17/34/2 19/35/2
f 21/36/4 22/37/4 24/28/4 23/27/4
f 13/26/6 8/14/6 21/36/6 23/27/6
f 6/5/2 16/8/2 24/28/2 22/37/2
f 8/14/5 6/5/5 22/37/5 21/36/5
